<svg xmlns="http://www.w3.org/2000/svg" version="1.1" xmlns:xlink="http://www.w3.org/1999/xlink" xmlns:svgjs="http://svgjs.dev/svgjs" width="1000" height="229" viewBox="0 0 1000 229"><g transform="matrix(1,0,0,1,-0.6060606060606233,0.6023860649349189)"><svg viewBox="0 0 396 91" data-background-color="#ffffff" preserveAspectRatio="xMidYMid meet" height="229" width="1000" xmlns="http://www.w3.org/2000/svg" xmlns:xlink="http://www.w3.org/1999/xlink"><g id="tight-bounds" transform="matrix(1,0,0,1,0.2400000000000091,-0.23937612187370405)"><svg viewBox="0 0 395.52 91.4787522437474" height="91.4787522437474" width="395.52"><g><svg viewBox="0 0 544.8054330792506 126.00657674379113" height="91.4787522437474" width="395.52"><g transform="matrix(1,0,0,1,149.28543307925062,32.61096402462323)"><svg viewBox="0 0 395.52 60.78464869454468" height="60.78464869454468" width="395.52"><g id="textblocktransform"><svg viewBox="0 0 395.52 60.78464869454468" height="60.78464869454468" width="395.52" id="textblock"><g><svg viewBox="0 0 395.52 60.78464869454468" height="60.78464869454468" width="395.52"><g transform="matrix(1,0,0,1,0,0)"><svg width="395.52" viewBox="4.15 -35.45 235.53 36.2" height="60.78464869454468" data-palette-color="#000000"><path d="M4.15 0L4.15-34.65 10.45-34.65 10.45 0 4.15 0ZM20.45-34.65L26.3-34.65Q27.4-32.75 28.75-30 30.1-27.25 31.5-24.23 32.9-21.2 34.27-18.07 35.65-14.95 36.8-12.3L36.8-12.3Q37.95-14.95 39.3-18.07 40.65-21.2 42.05-24.23 43.45-27.25 44.8-30 46.15-32.75 47.25-34.65L47.25-34.65 52.95-34.65Q53.4-30.85 53.8-26.58 54.2-22.3 54.52-17.82 54.85-13.35 55.12-8.83 55.4-4.3 55.6 0L55.6 0 49.4 0Q49.2-6.05 48.92-12.45 48.65-18.85 48.1-24.85L48.1-24.85Q47.55-23.7 46.8-22.1 46.05-20.5 45.2-18.63 44.35-16.75 43.47-14.75 42.6-12.75 41.77-10.88 40.95-9 40.25-7.38 39.55-5.75 39.05-4.6L39.05-4.6 34.35-4.6Q33.85-5.75 33.15-7.4 32.45-9.05 31.62-10.93 30.8-12.8 29.92-14.8 29.05-16.8 28.2-18.65 27.35-20.5 26.6-22.13 25.85-23.75 25.3-24.85L25.3-24.85Q24.75-18.85 24.47-12.45 24.2-6.05 24 0L24 0 17.8 0Q18-4.3 18.27-8.9 18.55-13.5 18.87-18.03 19.2-22.55 19.6-26.8 20-31.05 20.45-34.65L20.45-34.65ZM59.45-34.65L87.1-34.65 87.1-29.2 76.45-29.2 76.45 0 70.1 0 70.1-29.2 59.45-29.2 59.45-34.65ZM118.84 0L112.04 0Q111.34-2.05 110.59-4.05 109.84-6.05 109.14-8.15L109.14-8.15 94.54-8.15Q93.84-6.05 93.12-4.03 92.39-2 91.69 0L91.69 0 85.14 0Q87.09-5.55 88.84-10.25 90.59-14.95 92.27-19.15 93.94-23.35 95.59-27.15 97.24-30.95 98.99-34.65L98.99-34.65 104.94-34.65Q106.69-30.95 108.34-27.15 109.99-23.35 111.67-19.15 113.34-14.95 115.12-10.25 116.89-5.55 118.84 0L118.84 0ZM101.84-27.95L101.84-27.95Q100.69-25.3 99.22-21.5 97.74-17.7 96.14-13.25L96.14-13.25 107.54-13.25Q105.94-17.7 104.44-21.55 102.94-25.4 101.84-27.95ZM129.54-5.45L145.14-5.45 145.14 0 123.24 0 123.24-34.65 129.54-34.65 129.54-5.45ZM180.99 0L174.19 0Q173.49-2.05 172.74-4.05 171.99-6.05 171.29-8.15L171.29-8.15 156.69-8.15Q155.99-6.05 155.26-4.03 154.54-2 153.84 0L153.84 0 147.29 0Q149.24-5.55 150.99-10.25 152.74-14.95 154.41-19.15 156.09-23.35 157.74-27.15 159.39-30.95 161.14-34.65L161.14-34.65 167.09-34.65Q168.84-30.95 170.49-27.15 172.14-23.35 173.81-19.15 175.49-14.95 177.26-10.25 179.04-5.55 180.99 0L180.99 0ZM163.99-27.95L163.99-27.95Q162.84-25.3 161.36-21.5 159.89-17.7 158.29-13.25L158.29-13.25 169.69-13.25Q168.09-17.7 166.59-21.55 165.09-25.4 163.99-27.95ZM195.84 0.4L195.84 0.4Q193.09 0.4 190.29 0.23 187.49 0.05 185.39-0.5L185.39-0.5 185.39-34.15Q186.49-34.35 187.74-34.52 188.99-34.7 190.29-34.8 191.59-34.9 192.86-34.95 194.14-35 195.29-35L195.29-35Q198.44-35 201.14-34.52 203.84-34.05 205.81-32.95 207.79-31.85 208.89-30.05 209.99-28.25 209.99-25.6L209.99-25.6Q209.99-23.15 208.81-21.4 207.64-19.65 205.54-18.6L205.54-18.6Q208.69-17.55 210.19-15.5 211.69-13.45 211.69-10.3L211.69-10.3Q211.69-4.95 207.79-2.27 203.89 0.4 195.84 0.4ZM197.14-15.6L191.59-15.6 191.59-5.05Q192.64-4.95 193.84-4.9 195.04-4.85 196.04-4.85L196.04-4.85Q197.99-4.85 199.66-5.1 201.34-5.35 202.56-5.98 203.79-6.6 204.51-7.65 205.24-8.7 205.24-10.35L205.24-10.35Q205.24-13.3 203.09-14.45 200.94-15.6 197.14-15.6L197.14-15.6ZM191.59-29.65L191.59-20.55 196.04-20.55Q199.64-20.55 201.69-21.58 203.74-22.6 203.74-25.25L203.74-25.25Q203.74-27.75 201.61-28.8 199.49-29.85 196.09-29.85L196.09-29.85Q194.64-29.85 193.51-29.8 192.39-29.75 191.59-29.65L191.59-29.65ZM226.63-4.7L226.63-4.7Q230.03-4.7 231.58-5.85 233.13-7 233.13-9.1L233.13-9.1Q233.13-10.35 232.61-11.25 232.08-12.15 231.11-12.88 230.13-13.6 228.73-14.23 227.33-14.85 225.53-15.45L225.53-15.45Q223.73-16.1 222.06-16.88 220.38-17.65 219.11-18.8 217.83-19.95 217.06-21.55 216.28-23.15 216.28-25.4L216.28-25.4Q216.28-30.1 219.53-32.77 222.78-35.45 228.38-35.45L228.38-35.45Q231.63-35.45 234.16-34.73 236.68-34 238.13-33.15L238.13-33.15 236.18-28.05Q234.48-29 232.46-29.5 230.43-30 228.28-30L228.28-30Q225.73-30 224.31-28.95 222.88-27.9 222.88-26L222.88-26Q222.88-24.85 223.36-24.03 223.83-23.2 224.71-22.55 225.58-21.9 226.76-21.35 227.93-20.8 229.33-20.3L229.33-20.3Q231.78-19.4 233.71-18.48 235.63-17.55 236.96-16.28 238.28-15 238.98-13.28 239.68-11.55 239.68-9.1L239.68-9.1Q239.68-4.4 236.36-1.83 233.03 0.75 226.63 0.75L226.63 0.75Q224.48 0.75 222.71 0.48 220.93 0.2 219.56-0.2 218.18-0.6 217.18-1.03 216.18-1.45 215.58-1.8L215.58-1.8 217.43-6.95Q218.78-6.2 221.08-5.45 223.38-4.7 226.63-4.7Z" opacity="1" transform="matrix(1,0,0,1,0,0)" fill="#ffffff" class="wordmark-text-0" data-fill-palette-color="primary" id="text-0"></path></svg></g></svg></g></svg></g></svg></g><g><svg viewBox="0 0 134.93563635403729 126.00657674379113" height="126.00657674379113" width="134.93563635403729"><g><svg xmlns="http://www.w3.org/2000/svg" xmlns:xlink="http://www.w3.org/1999/xlink" version="1.1" x="0" y="0" viewBox="0.5614369246073889 2.6412711345495903 62.8775051178225 58.71672886545041" enable-background="new 0 0 64 64" xml:space="preserve" height="126.00657674379113" width="134.93563635403729" class="icon-icon-0" data-fill-palette-color="accent" id="icon-0"><g fill="#000000" data-fill-palette-color="accent"><path fill="#ffffff" d="M61.984 47.922c-0.647-1.041-1.354-2.083-1.978-3.001-0.319-0.471-0.637-0.942-0.952-1.414l-4.68-7.043c-3.572-5.376-7.259-10.925-10.896-16.38-0.303-0.456-0.42-0.836-0.414-1.356 0.014-1.525 0.023-3.803 0.024-6.77 0.001-0.81 0.661-1.472 1.47-1.474 1.399-0.004 1.875-0.017 1.931-0.018 1.052-0.033 1.882-0.916 1.851-1.968-0.031-1.039-0.869-1.853-1.969-1.853H46.37c-0.055 0.001-0.525 0.013-1.821 0.016-2.913 0.008-5.282 2.383-5.283 5.295-0.002 2.955-0.01 5.221-0.024 6.733-0.014 1.297 0.321 2.414 1.055 3.515 3.635 5.452 7.322 11 10.892 16.374l4.681 7.044c0.322 0.483 0.647 0.963 1.005 1.491 0.626 0.924 1.274 1.881 1.863 2.829 1.225 1.965 1.419 5.73-1.046 7.397-0.142 0.096-0.353 0.165-0.455 0.166-1.482 0.024-2.982 0.03-4.467 0.03l-4.361-0.006L32.071 57.53l-16.48-0.002-4.359 0.006c-1.485 0-2.987-0.006-4.469-0.03-0.102-0.001-0.315-0.07-0.457-0.167-2.464-1.666-2.269-5.431-1.044-7.397 0.6-0.965 1.259-1.936 1.897-2.878 0.325-0.479 0.65-0.958 0.97-1.44l4.511-6.787c3.623-5.453 7.37-11.091 11.063-16.631 0.734-1.101 1.069-2.218 1.056-3.513-0.014-1.505-0.023-3.777-0.024-6.753-0.001-2.919-2.379-5.295-5.3-5.295h-2.109c-1.054 0-1.911 0.857-1.911 1.912 0 1.054 0.857 1.911 1.911 1.911h2.109c0.814 0 1.476 0.661 1.476 1.474 0.002 2.988 0.01 5.272 0.025 6.789 0.006 0.519-0.11 0.898-0.414 1.354-3.415 5.123-6.876 10.33-10.243 15.396l-5.334 8.028c-0.314 0.472-0.633 0.943-0.951 1.414-0.657 0.968-1.336 1.969-1.977 2.999-1.096 1.761-1.622 4.13-1.409 6.338 0.256 2.651 1.518 4.868 3.555 6.246 0.739 0.501 1.689 0.809 2.54 0.824 1.511 0.023 3.036 0.03 4.542 0.03l4.346-0.006 16.338 0.001 16.48-0.001 4.279 0.006c1.528 0 3.076-0.006 4.611-0.03 0.849-0.015 1.798-0.323 2.536-0.823 2.037-1.378 3.301-3.596 3.557-6.247C63.606 52.05 63.08 49.681 61.984 47.922z" data-fill-palette-color="accent"></path><path fill="#ffffff" d="M32.745 14.534c-0.203 1.529-1.68 2.643-3.197 2.411-1.485-0.227-2.574-1.625-2.42-3.106 0.155-1.49 1.668-2.674 3.171-2.483C31.833 11.552 32.948 13.001 32.745 14.534z" data-fill-palette-color="accent"></path><path fill="#ffffff" d="M35.873 5.435c-0.177 1.335-1.467 2.308-2.792 2.106-1.297-0.198-2.248-1.419-2.113-2.713 0.136-1.301 1.457-2.336 2.77-2.169C35.077 2.83 36.051 4.096 35.873 5.435z" data-fill-palette-color="accent"></path><path fill="#ffffff" d="M37.91 22.589c-0.205 1.543-1.696 2.668-3.227 2.434-1.499-0.229-2.599-1.64-2.443-3.135 0.157-1.504 1.684-2.7 3.201-2.506C36.99 19.578 38.115 21.041 37.91 22.589z" data-fill-palette-color="accent"></path><path fill="#ffffff" d="M8.449 51.923c-0.248 0.398-0.395 1.232-0.26 1.847 0.898 0.009 1.887 0.013 3.063 0.013l4.34-0.006 16.48 0.002 16.339-0.002 4.34 0.006c1.177 0 2.167-0.004 3.063-0.013 0.135-0.613-0.012-1.446-0.258-1.842-0.557-0.896-1.184-1.823-1.792-2.718-0.359-0.53-0.689-1.018-1.017-1.51L41.946 31.452c-0.181-0.01-0.356-0.024-0.513-0.037l-0.199-0.016c-0.751-0.054-1.5-0.187-2.225-0.396-1.454-0.419-2.811-1.141-3.924-2.088-0.355-0.303-0.581-0.356-0.925-0.093-0.192 0.146-0.37 0.304-0.549 0.462-0.224 0.198-0.45 0.395-0.687 0.577-0.255 0.194-0.53 0.371-0.822 0.527-1.112 0.588-2.341 0.86-3.878 0.86-0.803 0-1.596-0.072-2.364-0.143-1.368-0.125-2.655-0.199-3.591 0.02l-11.02 16.585c-0.324 0.487-0.654 0.975-0.986 1.464l-0.066 0.097C9.602 50.147 8.993 51.047 8.449 51.923z" data-fill-palette-color="accent"></path></g></svg></g></svg></g></svg></g><defs></defs></svg><rect width="395.52" height="91.4787522437474" fill="none" stroke="none" visibility="hidden"></rect></g></svg></g></svg>